<svg xmlns="http://www.w3.org/2000/svg" width="53" height="52" viewBox="-10 -10 53 52">
  <g fill="#AA2023" fill-rule="evenodd">
    <path d="M494.34,747.6c-2.85,40.54-24.93,72.4-39.49,84.69c16.24,29.99,38.54,40.1,46.55,92.3h7.71v-55.02h-2.01
c-0.8,0-1.49-0.45-1.78-1.11h-0.64v-0.85c-0.4-0.11-0.72-0.45-0.8-0.9c0-0.05-0.03-0.13-0.03-0.19c0-0.53,0.32-0.98,0.82-1.14
v-0.72c-0.4-0.11-0.72-0.45-0.8-0.9c0-0.05-0.03-0.13-0.03-0.19c0-0.53,0.32-0.98,0.82-1.14v-0.72c-0.4-0.11-0.72-0.45-0.8-0.9
c0-0.05-0.03-0.13-0.03-0.19c0-0.53,0.32-0.98,0.82-1.14v-4.35c-8.92-2.87-15.4-11.23-15.4-21.1c0-12.24,9.93-22.14,22.16-22.14
c12.21,0,22.14,9.9,22.14,22.14c0,9.87-6.48,18.24-15.4,21.1v2.04c0.4,0.11,0.72,0.45,0.8,0.9c0,0.05,0.03,0.13,0.03,0.19
c0,0.53-0.32,0.98-0.82,1.14v0.72c0.4,0.11,0.72,0.45,0.8,0.9c0,0.05,0.03,0.13,0.03,0.19c0,0.53-0.32,0.98-0.82,1.14v0.72
c0.4,0.11,0.72,0.45,0.8,0.9c0,0.05,0.03,0.13,0.03,0.19c0,0.53-0.32,0.98-0.82,1.14v0.72c0.4,0.11,0.72,0.45,0.8,0.9
c0,0.05,0.03,0.13,0.03,0.19c0,0.53-0.32,0.98-0.82,1.14c-0.05,0.03-0.11,0.05-0.16,0.05l-0.42,0.08
c-0.29,0.69-0.98,1.19-1.83,1.19h-2.01v55.02h7.71c8.01-52.2,30.3-62.31,46.55-92.3c-14.56-12.3-36.63-44.15-39.49-84.69h3.31h0.73
v-13.12h14.47v-26.24h20.97v-80.6c-5.63,7.65-14.2,13.9-24.14,18.58c-21,9.88-43.88,9.88-64.88,0
c-9.95-4.68-18.51-10.93-24.14-18.58v80.6h20.97v26.24h14.47v13.12h0.73H494.34z"/>
  </g>
</svg>
