<?xml version="1.0" encoding="utf-8"?>
<!-- Generator: Adobe Illustrator 27.2.0, SVG Export Plug-In . SVG Version: 6.00 Build 0)  -->
<svg version="1.1" id="Layer_1" xmlns="http://www.w3.org/2000/svg" xmlns:xlink="http://www.w3.org/1999/xlink" x="0px" y="0px"
	 viewBox="0 0 32 32" style="enable-background:new 0 0 32 32;" xml:space="preserve">
<style type="text/css">
	.st0{fill:#AA2023;}
</style>
<g>
	<path class="st0" d="M18.7,26.47l-1.41-0.14l0.19-0.08l-0.47,0.01l-0.08-0.2l-0.52,0.07c0,0.02-0.01,0.04-0.01,0.06l0.35-0.05
		l0.03,0.21L18,26.47l-1.05,0.12l0.52,0.49h0l0,0l-1.48-0.34l-1.48,0.31l0.52-0.48l-1.05-0.14l1.22-0.1l0.04-0.21l0.34,0.05
		c0-0.02-0.01-0.04-0.01-0.06l-0.51-0.08l-0.08,0.2l-0.47-0.02l0.19,0.09l-1.42,0.11l1.11,0.16l-0.58,0.15l0.72-0.02l-0.93,0.71
		l2.08-0.47l0.32,0.29l0.32-0.28l2.07,0.51l-0.92-0.73l0.72,0.03l-0.58-0.16L18.7,26.47z"/>
	<path class="st0" d="M15.55,21.99c-0.07,1.04-0.64,1.86-1.02,2.18c0.42,0.77,0.99,1.03,1.2,2.38h0.2v-1.42h-0.05
		c-0.02,0-0.04-0.01-0.05-0.03h-0.02v-0.02c-0.01,0-0.02-0.01-0.02-0.02c0,0,0,0,0,0c0-0.01,0.01-0.03,0.02-0.03V25
		c-0.01,0-0.02-0.01-0.02-0.02c0,0,0,0,0,0c0-0.01,0.01-0.03,0.02-0.03v-0.02c-0.01,0-0.02-0.01-0.02-0.02c0,0,0,0,0,0
		c0-0.01,0.01-0.03,0.02-0.03v-0.11c-0.23-0.07-0.4-0.29-0.4-0.54c0-0.31,0.26-0.57,0.57-0.57c0.31,0,0.57,0.25,0.57,0.57
		c0,0.25-0.17,0.47-0.4,0.54v0.05c0.01,0,0.02,0.01,0.02,0.02c0,0,0,0,0,0c0,0.01-0.01,0.03-0.02,0.03v0.02
		c0.01,0,0.02,0.01,0.02,0.02c0,0,0,0,0,0c0,0.01-0.01,0.03-0.02,0.03v0.02c0.01,0,0.02,0.01,0.02,0.02c0,0,0,0,0,0
		c0,0.01-0.01,0.03-0.02,0.03v0.02c0.01,0,0.02,0.01,0.02,0.02c0,0,0,0,0,0c0,0.01-0.01,0.03-0.02,0.03c0,0,0,0,0,0l-0.01,0
		c-0.01,0.02-0.03,0.03-0.05,0.03h-0.05v1.42h0.2c0.21-1.34,0.78-1.6,1.2-2.38c-0.37-0.32-0.94-1.14-1.02-2.18h0.09h0.02v-0.34h0.37
		v-0.68h0.54V18.9c-0.14,0.2-0.37,0.36-0.62,0.48c-0.54,0.25-1.13,0.25-1.67,0c-0.26-0.12-0.48-0.28-0.62-0.48v2.07h0.54v0.68h0.37
		v0.34h0.02H15.55z"/>
	<path class="st0" d="M16.81,8.37c-0.18,0.96-2.37,3.51-2.73,5.78c-0.29,1.87-0.16,3.94,0.71,4.67c0.18,0.15,0.37,0.26,0.56,0.33h0
		c0.03,0.01,0.06,0.01,0.08,0c0.12-0.09-0.04-0.64-0.16-0.86c-0.13-0.26-0.32-0.48-0.4-0.77c-0.12-0.43,0.02-0.9,0.25-1.26
		c0.22-0.36,0.53-0.64,0.79-0.95c0.9-1.08,1.34-2.69,1.16-4.2c0.38,0.85,0.64,1.79,0.64,2.76c0,0.97-0.28,1.95-0.85,2.63
		c-0.26,0.32-0.58,0.56-0.83,0.9c-0.24,0.34-0.41,0.81-0.28,1.23c0.08,0.26,0.31,0.42,0.54,0.48c0.15,0.04,0.29,0.03,0.41-0.01
		c0,0,0,0,0,0c1.05-0.48,2.01-2.18,2.01-4.28c0-1.92-1.01-7.13-1.95-9.41c-0.01-0.02-0.04-0.01-0.03,0.02
		C17.01,6.48,16.98,7.43,16.81,8.37z"/>
	<path class="st0" d="M13.76,14.43c0.29-1.9,0.78-2.78,1.3-3.66c0.52-0.88,1.07-1.65,1.38-2.67c0.39-1.3,0.3-2.46-0.23-3.73
		c0-0.01-0.01,0-0.01,0.01c0.14,1.32,0.03,2.41-0.37,3.17c-0.5,0.95-1.06,1.48-1.48,2.49C13.92,11.04,13.69,13.04,13.76,14.43
		C13.75,14.44,13.76,14.44,13.76,14.43z"/>
	<path class="st0" d="M14.54,9c0.3-0.59,0.82-1.11,0.98-1.49c0.26-0.6,0.48-1.47,0.33-2.35c0-0.01-0.01-0.01-0.02,0
		c-0.07,0.68-0.46,0.92-0.64,1.48c0,0.01-0.01,0.02-0.01,0.04c-0.23,0.68-0.45,1.47-0.66,2.31C14.52,9.01,14.54,9.02,14.54,9z"/>
</g>
</svg>
