<?xml version="1.0" encoding="utf-8"?>
<!-- Generator: Adobe Illustrator 27.2.0, SVG Export Plug-In . SVG Version: 6.00 Build 0)  -->
<svg version="1.1" id="Layer_1" xmlns="http://www.w3.org/2000/svg" xmlns:xlink="http://www.w3.org/1999/xlink" x="0px" y="0px"
	 viewBox="0 0 32 32" style="enable-background:new 0 0 32 32;" xml:space="preserve">
<style type="text/css">
	.st0{fill:#AA2023;}
</style>
<g>
	<path class="st0" d="M19.52,29.66l-1.84-0.18l0.25-0.11l-0.61,0.01l-0.1-0.26l-0.68,0.09c-0.01,0.02-0.01,0.05-0.02,0.07l0.46-0.06
		l0.04,0.27l1.58,0.16l-1.37,0.16l0.67,0.64h0l0,0l-1.92-0.44l-1.93,0.4l0.68-0.63l-1.37-0.19l1.58-0.13l0.05-0.27l0.44,0.07
		c-0.01-0.02-0.01-0.05-0.02-0.07l-0.67-0.1l-0.1,0.26l-0.61-0.02l0.25,0.11l-1.84,0.14l1.45,0.21l-0.76,0.19l0.93-0.02l-1.21,0.93
		l2.7-0.61l0.41,0.37l0.42-0.36l2.69,0.67l-1.2-0.95l0.93,0.04l-0.75-0.21L19.52,29.66z"/>
	<path class="st0" d="M15.41,23.81c-0.1,1.36-0.83,2.42-1.32,2.84c0.54,1,1.29,1.34,1.56,3.09h0.26V27.9h-0.07
		c-0.03,0-0.05-0.02-0.06-0.04h-0.02v-0.03c-0.01,0-0.02-0.02-0.03-0.03c0,0,0,0,0-0.01c0-0.02,0.01-0.03,0.03-0.04v-0.02
		c-0.01,0-0.02-0.02-0.03-0.03c0,0,0,0,0-0.01c0-0.02,0.01-0.03,0.03-0.04v-0.02c-0.01,0-0.02-0.02-0.03-0.03c0,0,0,0,0-0.01
		c0-0.02,0.01-0.03,0.03-0.04v-0.15c-0.3-0.1-0.52-0.38-0.52-0.71c0-0.41,0.33-0.74,0.74-0.74c0.41,0,0.74,0.33,0.74,0.74
		c0,0.33-0.22,0.61-0.52,0.71v0.07c0.01,0,0.02,0.02,0.03,0.03c0,0,0,0,0,0.01c0,0.02-0.01,0.03-0.03,0.04v0.02
		c0.01,0,0.02,0.02,0.03,0.03c0,0,0,0,0,0.01c0,0.02-0.01,0.03-0.03,0.04v0.02c0.01,0,0.02,0.02,0.03,0.03c0,0,0,0,0,0.01
		c0,0.02-0.01,0.03-0.03,0.04v0.02c0.01,0,0.02,0.02,0.03,0.03c0,0,0,0,0,0.01c0,0.02-0.01,0.03-0.03,0.04c0,0,0,0-0.01,0l-0.01,0
		c-0.01,0.02-0.03,0.04-0.06,0.04h-0.07v1.84h0.26c0.27-1.75,1.01-2.09,1.56-3.09c-0.49-0.41-1.23-1.48-1.32-2.84h0.11h0.02v-0.44
		h0.48V22.5h0.7v-2.7c-0.19,0.26-0.48,0.47-0.81,0.62c-0.7,0.33-1.47,0.33-2.17,0c-0.33-0.16-0.62-0.37-0.81-0.62v2.7h0.7v0.88h0.48
		v0.44h0.02H15.41z"/>
	<path class="st0" d="M17.05,6.1c-0.23,1.25-3.08,4.56-3.55,7.53c-0.38,2.43-0.21,5.12,0.93,6.08c0.24,0.19,0.48,0.34,0.73,0.44h0
		c0.05,0.02,0.08,0.01,0.1,0c0.16-0.11-0.06-0.83-0.21-1.11c-0.18-0.33-0.42-0.63-0.52-1c-0.15-0.55,0.03-1.17,0.32-1.64
		c0.29-0.47,0.69-0.83,1.03-1.24c1.17-1.41,1.75-3.5,1.51-5.47c0.5,1.1,0.84,2.34,0.84,3.59c0,1.26-0.36,2.54-1.1,3.43
		c-0.34,0.41-0.76,0.73-1.08,1.17c-0.32,0.44-0.53,1.06-0.37,1.6c0.1,0.34,0.4,0.55,0.7,0.63c0.19,0.05,0.38,0.05,0.53-0.02
		c0,0,0,0,0.01,0c1.37-0.63,2.61-2.84,2.61-5.57c0-2.5-1.31-9.28-2.54-12.24C17,2.23,16.96,2.25,16.97,2.28
		C17.31,3.64,17.28,4.87,17.05,6.1z"/>
	<path class="st0" d="M13.09,13.98c0.37-2.48,1.02-3.62,1.69-4.76c0.67-1.14,1.4-2.15,1.8-3.48c0.51-1.69,0.39-3.2-0.3-4.85
		c0-0.01-0.02-0.01-0.02,0.01c0.18,1.72,0.04,3.13-0.49,4.13c-0.65,1.24-1.38,1.92-1.93,3.24c-0.54,1.3-0.84,3.9-0.76,5.71
		C13.08,13.99,13.09,13.99,13.09,13.98z"/>
	<path class="st0" d="M14.1,6.92c0.39-0.77,1.06-1.44,1.28-1.94c0.34-0.79,0.63-1.91,0.42-3.06c0-0.01-0.02-0.01-0.02,0
		c-0.09,0.88-0.6,1.19-0.84,1.93c-0.01,0.02-0.01,0.03-0.02,0.05c-0.3,0.88-0.59,1.92-0.86,3.01C14.07,6.92,14.09,6.94,14.1,6.92z"
		/>
</g>
</svg>
