<svg xmlns="http://www.w3.org/2000/svg" width="53" height="52" viewBox="-10 -10 53 52">
  <g fill="#AA2023" fill-rule="evenodd">
    <path class="st0" d="M31.85,46.89l-2.8-0.27l0.38-0.17l-0.92,0.01l-0.15-0.4l-1.04,0.14c-0.01,0.04-0.02,0.07-0.03,0.11l0.69-0.1
l0.07,0.41l2.4,0.24l-2.09,0.25l1.02,0.98h0l0,0l-2.92-0.67l-2.94,0.61l1.04-0.96l-2.08-0.29l2.41-0.2l0.07-0.41l0.68,0.11
c-0.01-0.04-0.02-0.08-0.03-0.11l-1.02-0.15l-0.16,0.4l-0.92-0.03l0.38,0.17l-2.8,0.22l2.2,0.32l-1.15,0.29l1.42-0.03l-1.85,1.41
l4.11-0.93l0.63,0.57l0.64-0.55l4.09,1.01l-1.82-1.45l1.42,0.06l-1.15-0.32L31.85,46.89z"/>
<path class="st0" d="M25.6,38c-0.15,2.07-1.27,3.69-2.01,4.31c0.83,1.53,1.96,2.04,2.37,4.7h0.39v-2.8h-0.1
c-0.04,0-0.08-0.02-0.09-0.06h-0.03v-0.04c-0.02-0.01-0.04-0.02-0.04-0.05c0,0,0-0.01,0-0.01c0-0.03,0.02-0.05,0.04-0.06v-0.04
c-0.02-0.01-0.04-0.02-0.04-0.05c0,0,0-0.01,0-0.01c0-0.03,0.02-0.05,0.04-0.06v-0.04c-0.02-0.01-0.04-0.02-0.04-0.05
c0,0,0-0.01,0-0.01c0-0.03,0.02-0.05,0.04-0.06v-0.22c-0.45-0.15-0.78-0.57-0.78-1.08c0-0.62,0.51-1.13,1.13-1.13
c0.62,0,1.13,0.5,1.13,1.13c0,0.5-0.33,0.93-0.78,1.08v0.1c0.02,0.01,0.04,0.02,0.04,0.05c0,0,0,0.01,0,0.01
c0,0.03-0.02,0.05-0.04,0.06v0.04c0.02,0.01,0.04,0.02,0.04,0.05c0,0,0,0.01,0,0.01c0,0.03-0.02,0.05-0.04,0.06v0.04
c0.02,0.01,0.04,0.02,0.04,0.05c0,0,0,0.01,0,0.01c0,0.03-0.02,0.05-0.04,0.06v0.04c0.02,0.01,0.04,0.02,0.04,0.05
c0,0,0,0.01,0,0.01c0,0.03-0.02,0.05-0.04,0.06c0,0-0.01,0-0.01,0l-0.02,0c-0.01,0.04-0.05,0.06-0.09,0.06h-0.1v2.8h0.39
c0.41-2.66,1.54-3.17,2.37-4.7c-0.74-0.63-1.87-2.25-2.01-4.31h0.17h0.04v-0.67h0.74V36h1.07v-4.11c-0.29,0.39-0.72,0.71-1.23,0.95
c-1.07,0.5-2.24,0.5-3.31,0c-0.51-0.24-0.94-0.56-1.23-0.95V36h1.07v1.34h0.74V38h0.04H25.6z"/>
<path class="st0" d="M28.1,11.05c-0.35,1.9-4.69,6.94-5.4,11.45c-0.58,3.7-0.32,7.79,1.41,9.24c0.36,0.3,0.74,0.52,1.12,0.66h0
c0.07,0.03,0.12,0.02,0.16-0.01c0.24-0.17-0.09-1.26-0.32-1.7c-0.27-0.51-0.63-0.95-0.79-1.52c-0.23-0.84,0.05-1.78,0.49-2.49
c0.45-0.71,1.04-1.26,1.57-1.89c1.79-2.14,2.66-5.32,2.3-8.32c0.76,1.68,1.27,3.55,1.28,5.46c0,1.91-0.55,3.86-1.67,5.21
c-0.52,0.63-1.15,1.12-1.64,1.78c-0.48,0.67-0.81,1.61-0.56,2.44c0.15,0.51,0.61,0.84,1.07,0.96c0.29,0.07,0.58,0.07,0.81-0.02
c0,0,0.01,0,0.01,0c2.08-0.95,3.97-4.32,3.97-8.48c0-3.81-2-14.11-3.86-18.62c-0.02-0.04-0.07-0.02-0.06,0.03
C28.5,7.31,28.44,9.19,28.1,11.05z"/>
<path class="st0" d="M22.07,23.04c0.56-3.77,1.55-5.51,2.57-7.24c1.03-1.74,2.13-3.27,2.73-5.29c0.77-2.57,0.6-4.87-0.46-7.38
c-0.01-0.02-0.03-0.01-0.03,0.01c0.28,2.62,0.06,4.76-0.74,6.28c-1,1.89-2.1,2.92-2.94,4.92c-0.83,1.98-1.28,5.93-1.16,8.69
C22.05,23.06,22.07,23.06,22.07,23.04z"/>
<path class="st0" d="M23.62,12.3c0.59-1.17,1.62-2.19,1.95-2.95c0.52-1.2,0.96-2.9,0.64-4.66c0-0.02-0.03-0.02-0.03,0
c-0.13,1.34-0.91,1.81-1.27,2.94c-0.01,0.02-0.02,0.05-0.02,0.07c-0.45,1.34-0.89,2.91-1.31,4.58
C23.56,12.31,23.6,12.33,23.62,12.3z"/>
  </g>
</svg>
