<?xml version="1.0" encoding="utf-8"?>
<!-- Generator: Adobe Illustrator 27.2.0, SVG Export Plug-In . SVG Version: 6.00 Build 0)  -->
<svg version="1.1" id="Layer_1" xmlns="http://www.w3.org/2000/svg" xmlns:xlink="http://www.w3.org/1999/xlink" x="0px" y="0px"
	 viewBox="0 0 59.26 204.48" style="enable-background:new 0 0 59.26 204.48;" xml:space="preserve">
<style type="text/css">
	.st0{fill:#AA2023;}
</style>
<g>
	<path class="st0" d="M51.77,188.75l-11.58-1.13l1.57-0.68l-3.83,0.05l-0.62-1.65l-4.29,0.57c-0.04,0.15-0.08,0.31-0.11,0.46
		l2.87-0.4l0.28,1.72l9.95,1.01l-8.64,1.02l4.23,4.05h0l0,0L29.49,191l-12.16,2.54l4.3-3.97l-8.62-1.19l9.97-0.82l0.31-1.71
		l2.8,0.45c-0.04-0.16-0.07-0.31-0.11-0.46l-4.21-0.64l-0.65,1.64l-3.83-0.12l1.56,0.71l-11.6,0.91l9.11,1.34l-4.78,1.21l5.89-0.13
		l-7.65,5.86l17.03-3.87l2.6,2.34l2.64-2.29l16.95,4.19l-7.53-6l5.88,0.24l-4.75-1.3L51.77,188.75z"/>
	<path class="st0" d="M25.91,151.95c-0.6,8.55-5.26,15.27-8.33,17.87c3.43,6.33,8.13,8.46,9.82,19.47h1.63v-11.61H28.6
		c-0.17,0-0.31-0.1-0.38-0.24h-0.13v-0.18c-0.08-0.02-0.15-0.1-0.17-0.19c0-0.01-0.01-0.03-0.01-0.04c0-0.11,0.07-0.21,0.17-0.24
		v-0.15c-0.08-0.02-0.15-0.1-0.17-0.19c0-0.01-0.01-0.03-0.01-0.04c0-0.11,0.07-0.21,0.17-0.24v-0.15c-0.08-0.02-0.15-0.1-0.17-0.19
		c0-0.01-0.01-0.03-0.01-0.04c0-0.11,0.07-0.21,0.17-0.24v-0.92c-1.88-0.6-3.25-2.37-3.25-4.45c0-2.58,2.09-4.67,4.68-4.67
		c2.58,0,4.67,2.09,4.67,4.67c0,2.08-1.37,3.85-3.25,4.45v0.43c0.08,0.02,0.15,0.1,0.17,0.19c0,0.01,0.01,0.03,0.01,0.04
		c0,0.11-0.07,0.21-0.17,0.24v0.15c0.08,0.02,0.15,0.1,0.17,0.19c0,0.01,0.01,0.03,0.01,0.04c0,0.11-0.07,0.21-0.17,0.24v0.15
		c0.08,0.02,0.15,0.1,0.17,0.19c0,0.01,0.01,0.03,0.01,0.04c0,0.11-0.07,0.21-0.17,0.24v0.15c0.08,0.02,0.15,0.1,0.17,0.19
		c0,0.01,0.01,0.03,0.01,0.04c0,0.11-0.07,0.21-0.17,0.24c-0.01,0.01-0.02,0.01-0.03,0.01l-0.09,0.02
		c-0.06,0.15-0.21,0.25-0.39,0.25H30v11.61h1.63c1.69-11.01,6.39-13.15,9.82-19.47c-3.07-2.59-7.73-9.32-8.33-17.87h0.7h0.15v-2.77
		h3.05v-5.54h4.42v-17.01c-1.19,1.61-3,2.93-5.09,3.92c-4.43,2.09-9.26,2.09-13.69,0c-2.1-0.99-3.91-2.31-5.09-3.92v17.01H22v5.54
		h3.05v2.77h0.15H25.91z"/>
	<path class="st0" d="M36.26,40.33c-1.45,7.89-19.42,28.74-22.35,47.41c-2.4,15.31-1.31,32.27,5.84,38.28
		c1.5,1.23,3.05,2.16,4.63,2.74h0.01c0.29,0.11,0.5,0.09,0.65-0.03c0.98-0.72-0.37-5.21-1.33-7.02c-1.11-2.09-2.62-3.94-3.28-6.3
		c-0.97-3.49,0.19-7.39,2.04-10.32c1.84-2.94,4.33-5.21,6.5-7.81c7.4-8.87,11.03-22.05,9.51-34.46c3.14,6.95,5.28,14.71,5.29,22.63
		c0.01,7.91-2.27,15.99-6.93,21.6c-2.16,2.59-4.77,4.63-6.78,7.39c-2,2.77-3.37,6.65-2.33,10.1c0.63,2.12,2.51,3.47,4.43,3.97
		c1.2,0.31,2.41,0.28,3.35-0.1c0.01-0.01,0.02-0.01,0.03-0.02c8.6-3.95,16.46-17.89,16.46-35.11c0-15.77-8.27-58.46-16-77.12
		c-0.08-0.19-0.31-0.07-0.26,0.13C37.91,24.84,37.68,32.62,36.26,40.33z"/>
	<path class="st0" d="M11.3,89.99c2.34-15.61,6.42-22.83,10.63-29.97c4.25-7.2,8.81-13.55,11.32-21.92
		c3.2-10.65,2.48-20.16-1.89-30.56c-0.03-0.07-0.12-0.04-0.11,0.04c1.14,10.86,0.26,19.73-3.06,26.02
		c-4.12,7.82-8.69,12.1-12.16,20.4c-3.43,8.2-5.3,24.57-4.81,35.99C11.22,90.06,11.29,90.05,11.3,89.99z"/>
	<path class="st0" d="M17.69,45.51c2.45-4.85,6.7-9.09,8.07-12.22c2.16-4.95,3.97-12.03,2.67-19.3c-0.01-0.08-0.12-0.07-0.12,0.01
		c-0.54,5.54-3.76,7.51-5.27,12.17c-0.03,0.1-0.07,0.2-0.1,0.3c-1.86,5.55-3.7,12.06-5.42,18.95
		C17.47,45.55,17.63,45.63,17.69,45.51z"/>
</g>
</svg>
