<svg xmlns="http://www.w3.org/2000/svg" width="53" height="52" viewBox="-10 -10 53 52">
  <g fill="#AA2023" fill-rule="evenodd">
    <path d="M9.64,14.41l-0.86-0.08l0.12-0.05l-0.28,0l-0.05-0.12L8.25,14.2c0,0.01-0.01,0.02-0.01,0.03l0.21-0.03
l0.02,0.13l0.74,0.08l-0.64,0.08l0.31,0.3h0l0,0l-0.9-0.2l-0.9,0.19l0.32-0.29l-0.64-0.09l0.74-0.06l0.02-0.13l0.21,0.03
c0-0.01-0.01-0.02-0.01-0.03l-0.31-0.05l-0.05,0.12l-0.28-0.01l0.12,0.05l-0.86,0.07l0.67,0.1l-0.35,0.09l0.44-0.01l-0.57,0.43
l1.26-0.29l0.19,0.17l0.2-0.17l1.26,0.31l-0.56-0.44l0.44,0.02l-0.35-0.1L9.64,14.41z"/>
<path class="st0" d="M7.72,11.68C7.68,12.31,7.33,12.81,7.11,13c0.25,0.47,0.6,0.63,0.73,1.44h0.12v-0.86H7.92
c-0.01,0-0.02-0.01-0.03-0.02H7.89v-0.01c-0.01,0-0.01-0.01-0.01-0.01c0,0,0,0,0,0c0-0.01,0-0.02,0.01-0.02v-0.01
c-0.01,0-0.01-0.01-0.01-0.01c0,0,0,0,0,0c0-0.01,0-0.02,0.01-0.02v-0.01c-0.01,0-0.01-0.01-0.01-0.01c0,0,0,0,0,0
c0-0.01,0-0.02,0.01-0.02v-0.07c-0.14-0.04-0.24-0.18-0.24-0.33c0-0.19,0.16-0.35,0.35-0.35c0.19,0,0.35,0.15,0.35,0.35
c0,0.15-0.1,0.28-0.24,0.33v0.03c0.01,0,0.01,0.01,0.01,0.01c0,0,0,0,0,0c0,0.01,0,0.02-0.01,0.02v0.01c0.01,0,0.01,0.01,0.01,0.01
c0,0,0,0,0,0c0,0.01,0,0.02-0.01,0.02v0.01c0.01,0,0.01,0.01,0.01,0.01c0,0,0,0,0,0c0,0.01,0,0.02-0.01,0.02v0.01
c0.01,0,0.01,0.01,0.01,0.01c0,0,0,0,0,0c0,0.01,0,0.02-0.01,0.02c0,0,0,0,0,0l-0.01,0c0,0.01-0.02,0.02-0.03,0.02H8.03v0.86h0.12
c0.13-0.82,0.47-0.97,0.73-1.44c-0.23-0.19-0.57-0.69-0.62-1.32h0.05h0.01v-0.21h0.23v-0.41h0.33V9.81
C8.79,9.93,8.65,10.02,8.5,10.1c-0.33,0.15-0.69,0.15-1.01,0C7.33,10.02,7.2,9.93,7.11,9.81v1.26h0.33v0.41h0.23v0.21h0.01H7.72z"/>
    <path fill-opacity=".44" d="M13 24a11 11 0 0 0 11-11s-22-.1-22 0a11 11 0 0 0 11 11z"/>
  </g>
</svg>
