<svg xmlns="http://www.w3.org/2000/svg" width="53" height="52" viewBox="0 0 53 52">
  <g fill="#AA2023" fill-rule="evenodd">
    <path d="M346.96,700.6c-26.25,10.46-54.85,10.46-81.11,0c-12.43-4.95-23.14-11.56-30.18-19.65v85.26h22.03v27.76h8.22h3.71
c-3.59,30.06-10.2,54.5-29.79,81.5c19.32,31.72,45.83,42.42,55.35,97.64h9.16v-69.32h-2.4c-0.82,0-1.53-0.46-1.83-1.15h-0.66
v-0.88c-0.41-0.11-0.74-0.46-0.82-0.93c0-0.05-0.03-0.14-0.03-0.19c0-0.55,0.33-1.01,0.85-1.18v-0.74
c-0.41-0.11-0.74-0.46-0.82-0.93c0-0.05-0.03-0.14-0.03-0.19c0-0.55,0.33-1.01,0.85-1.18v-0.74c-0.41-0.11-0.74-0.46-0.82-0.93
c0-0.05-0.03-0.14-0.03-0.19c0-0.55,0.33-1.01,0.85-1.18v-4.48c-9.19-2.95-15.86-11.57-15.86-21.74c0-12.61,10.23-22.8,22.83-22.8
c12.58,0,22.8,10.2,22.8,22.8c0,10.17-6.67,18.78-15.86,21.74v2.11c0.41,0.11,0.74,0.46,0.82,0.93c0,0.05,0.03,0.14,0.03,0.19
c0,0.55-0.33,1.01-0.85,1.18v0.74c0.41,0.11,0.74,0.46,0.82,0.93c0,0.05,0.03,0.14,0.03,0.19c0,0.55-0.33,1.01-0.85,1.18v0.74
c0.41,0.11,0.74,0.46,0.82,0.93c0,0.05,0.03,0.14,0.03,0.19c0,0.55-0.33,1.01-0.85,1.18v0.74c0.41,0.11,0.74,0.46,0.82,0.93
c0,0.05,0.03,0.14,0.03,0.19c0,0.55-0.33,1.01-0.85,1.18c-0.05,0.03-0.11,0.05-0.16,0.05l-0.44,0.08
c-0.3,0.71-1.01,1.23-1.89,1.23h-2.39v69.32h9.16c9.52-55.22,36.03-65.91,55.35-97.64c-19.59-27-26.2-51.44-29.79-81.5h3.71h8.18
v-27.76h22.03v-85.26C370.1,689.04,359.4,695.65,346.96,700.6z"/>
<path class="st1" d="M379.04,656.02c0.97-2.88,2.07-6.15,3.4-9.82c9.33-25.65,17.12-55.97,22.52-87.66
c4.98-29.22,7.72-58.77,7.72-83.19c0-96.16-21.78-194.65-77.54-350.11c12.11,72.57-20.33,129.4-54.62,189.48
c-29.28,51.3-59.56,104.35-69.09,174.08c-8.98,65.78,0.42,102.43,25.7,176.33c4.75,13.89,23.38,22.94,32.57,25.78
c0.51,0.16,0.96,0.24,1.34,0.24c0.61,0,0.98-0.19,1.27-0.67c2.74-4.5-4.06-23.7-8.69-32.66c-1.94-3.75-4.37-7.4-6.73-10.92
c-4.32-6.47-8.79-13.16-10.68-21.1c-8.08-34.09,11.88-57.55,34.99-84.71c31.85-37.43,71.48-84.02,60.13-179.82l-1.04-8.78
l3.83,7.96c45.08,93.67,28.88,185.14-46.85,264.53c-6.27,6.58-10.19,20.99-9.52,35.05c0.66,13.93,5.43,25.43,13.43,32.36
c3.08,2.67,8.21,4.08,14.83,4.08c14.92,0,35.37-7.02,48.62-16.7C373.15,673.55,375.12,667.69,379.04,656.02z"/>
<path class="st0" d="M334.77,119.84c-0.17-0.46-0.57-0.67-0.97-0.67c-0.59,0-1.18,0.44-1.04,1.14
c26.23,134.97-101.43,211.93-122.78,368.29c-9.08,66.5,0.57,103.36,25.76,177.01c5.05,14.77,24.73,23.99,33.53,26.71
c0.66,0.21,1.25,0.3,1.77,0.3c8.63,0-1.69-26.92-6.1-35.47c-5.5-10.66-14.44-19.7-17.28-31.69
c-18.74-79.1,114.91-97.57,95.14-264.36c44.53,92.53,28.69,183.95-46.59,262.87c-12.21,12.8-15.8,52.36,4.01,69.54
c3.56,3.09,9.17,4.44,15.8,4.44c15.36,0,36.17-7.26,49.49-16.98c11.08-8.09,11.6-15.76,18.33-34.26
c19.79-54.41,30.32-122.92,30.32-171.36C414.16,378.59,392.25,279.29,334.77,119.84z M301.18,692.39
c-8-6.94-12.77-18.43-13.43-32.36c-0.67-14.06,3.25-28.47,9.52-35.05c75.73-79.39,91.93-170.86,46.85-264.53l-3.83-7.96l1.04,8.78
c11.36,95.8-28.28,142.39-60.13,179.82c-23.11,27.16-43.06,50.62-34.99,84.71c1.88,7.95,6.35,14.63,10.68,21.1
c2.36,3.52,4.79,7.17,6.73,10.92c4.62,8.95,11.43,28.15,8.69,32.66c-0.29,0.47-0.66,0.67-1.27,0.67c-0.38,0-0.83-0.08-1.34-0.24
c-9.19-2.85-27.82-11.9-32.57-25.78c-25.28-73.9-34.68-110.55-25.7-176.33c9.52-69.73,39.8-122.78,69.09-174.08
c34.29-60.08,66.73-116.91,54.62-189.48c55.76,155.46,77.54,253.94,77.54,350.11c0,24.43-2.74,53.97-7.72,83.19
c-5.4,31.7-13.18,62.01-22.52,87.66c-1.34,3.67-2.43,6.94-3.4,9.82c-3.92,11.67-5.89,17.53-14.41,23.75
c-13.25,9.68-33.7,16.7-48.62,16.7C309.38,696.47,304.26,695.06,301.18,692.39z"/>
<path class="st1" d="M319.33,128.78c-0.87-24.17-5.11-48.69-12.96-74.81c9.59,92.23-15.18,134.82-43.78,184.01
c-29.62,50.95-63.09,108.51-62.08,236.75c10.63-62.43,36.57-111.83,61.71-159.69c20.66-39.34,40.18-76.5,50.29-118.74
C317.91,173.69,320.14,151.6,319.33,128.78z"/>
<path class="st1" d="M292.08,87.7c-2.82,15.63-8.92,29.15-14.83,42.24c-3.69,8.18-7.18,15.92-9.95,24.16
c-0.98,2.92-2.01,5.98-3.09,9.17c-8.95,26.52-21.1,62.52-32.75,103.85c18.11-34.7,46.83-92.78,52.01-107.7
C291.57,136.12,298,117.6,292.08,87.7z"/>
  </g>
</svg>
