<?xml version="1.0" standalone="no"?>
<!DOCTYPE svg PUBLIC "-//W3C//DTD SVG 20010904//EN"
 "http://www.w3.org/TR/2001/REC-SVG-20010904/DTD/svg10.dtd">
<svg version="1.0" xmlns="http://www.w3.org/2000/svg"
 width="57.000000pt" height="96.000000pt" viewBox="0 0 57.000000 96.000000"
 preserveAspectRatio="xMidYMid meet">

<g transform="translate(0.000000,96.000000) scale(0.100000,-0.100000)"
fill="#000000" stroke="none">
<path d="M220 282 c0 -23 4 -42 9 -42 17 0 23 -39 10 -74 -11 -30 -10 -37 9
-61 12 -15 22 -34 22 -41 0 -8 7 -14 15 -14 8 0 15 6 15 14 0 7 10 26 21 40
19 25 20 32 10 66 -11 38 -7 70 10 70 5 0 9 19 9 42 0 33 -3 39 -12 30 -16
-16 -90 -16 -106 0 -9 9 -12 3 -12 -30z m83 -124 c2 -7 -1 -21 -7 -30 -9 -15
-11 -15 -22 0 -6 9 -10 22 -7 29 7 17 30 17 36 1z"/>
</g>
</svg>
