<svg xmlns="http://www.w3.org/2000/svg" width="53" height="52" viewBox="-10 -10 53 52">
<style type="text/css">
.st0{fill:#DE7026;}
</style>
<g>
<g>
<path d="M17.19,21.53c-0.78,0.31-1.62,0.31-2.4,0c-0.37-0.15-0.68-0.34-0.89-0.58v2.52h0.65v0.82h0.24h0.11
c-0.11,0.89-0.3,1.61-0.88,2.41c0.57,0.94,1.36,1.25,1.64,2.89h0.27v-2.05h-0.07c-0.02,0-0.05-0.01-0.05-0.03h-0.02v-0.03
c-0.01,0-0.02-0.01-0.02-0.03c0,0,0,0,0-0.01c0-0.02,0.01-0.03,0.03-0.03v-0.02c-0.01,0-0.02-0.01-0.02-0.03c0,0,0,0,0-0.01
c0-0.02,0.01-0.03,0.03-0.03V27.3c-0.01,0-0.02-0.01-0.02-0.03c0,0,0,0,0-0.01c0-0.02,0.01-0.03,0.03-0.03V27.1
c-0.27-0.09-0.47-0.34-0.47-0.64c0-0.37,0.3-0.67,0.68-0.67c0.37,0,0.67,0.3,0.67,0.67c0,0.3-0.2,0.56-0.47,0.64v0.06
c0.01,0,0.02,0.01,0.02,0.03c0,0,0,0,0,0.01c0,0.02-0.01,0.03-0.03,0.03v0.02c0.01,0,0.02,0.01,0.02,0.03c0,0,0,0,0,0.01
c0,0.02-0.01,0.03-0.03,0.03v0.02c0.01,0,0.02,0.01,0.02,0.03c0,0,0,0,0,0.01c0,0.02-0.01,0.03-0.03,0.03v0.02
c0.01,0,0.02,0.01,0.02,0.03c0,0,0,0,0,0.01c0,0.02-0.01,0.03-0.03,0.03c0,0,0,0,0,0l-0.01,0c-0.01,0.02-0.03,0.04-0.06,0.04
h-0.07v2.05h0.27c0.28-1.63,1.07-1.95,1.64-2.89c-0.58-0.8-0.77-1.52-0.88-2.41h0.11h0.24v-0.82h0.65v-2.52
C17.88,21.19,17.56,21.39,17.19,21.53z"/>
</g>
<g>
<path class="st0" d="M18.14,20.21c0.03-0.09,0.06-0.18,0.1-0.29c0.28-0.76,0.51-1.65,0.67-2.59c0.15-0.86,0.23-1.74,0.23-2.46
c0-2.84-0.64-5.76-2.29-10.35c0.36,2.15-0.6,3.83-1.62,5.6c-0.87,1.52-1.76,3.09-2.04,5.15c-0.27,1.95,0.01,3.03,0.76,5.21
c0.14,0.41,0.69,0.68,0.96,0.76c0.02,0,0.03,0.01,0.04,0.01c0.02,0,0.03-0.01,0.04-0.02c0.08-0.13-0.12-0.7-0.26-0.97
c-0.06-0.11-0.13-0.22-0.2-0.32c-0.13-0.19-0.26-0.39-0.32-0.62c-0.24-1.01,0.35-1.7,1.03-2.5c0.94-1.11,2.11-2.48,1.78-5.32
L17,11.24l0.11,0.24c1.33,2.77,0.85,5.47-1.39,7.82c-0.19,0.19-0.3,0.62-0.28,1.04c0.02,0.41,0.16,0.75,0.4,0.96
c0.09,0.08,0.24,0.12,0.44,0.12c0.44,0,1.05-0.21,1.44-0.49C17.97,20.73,18.03,20.56,18.14,20.21z"/>
<path class="st0" d="M16.38,4.62c-0.03-0.71-0.15-1.44-0.38-2.21c0.28,2.73-0.45,3.99-1.29,5.44c-0.88,1.51-1.87,3.21-1.84,7
c0.31-1.85,1.08-3.31,1.82-4.72c0.61-1.16,1.19-2.26,1.49-3.51C16.33,5.95,16.4,5.3,16.38,4.62z"/>
<path class="st0" d="M15.57,3.41c-0.08,0.46-0.26,0.86-0.44,1.25c-0.11,0.24-0.21,0.47-0.29,0.71c-0.03,0.09-0.06,0.18-0.09,0.27
c-0.26,0.78-0.62,1.85-0.97,3.07c0.54-1.03,1.38-2.74,1.54-3.18C15.56,4.84,15.75,4.29,15.57,3.41z"/>
</g>
</g>
</svg>